<svg xmlns="http://www.w3.org/2000/svg" xmlns:xlink="http://www.w3.org/1999/xlink" viewBox="0 0 863.45 142.99">
	<defs>
		<style>
			.cls-1 {
				fill: url("#linear-gradient");
			}
			.cls-2 {
				fill: url("#linear-gradient-2");
			}
			.cls-3 {
				fill: url("#linear-gradient-3");
			}
			.cls-4 {
				fill: url("#linear-gradient-4");
			}
			.cls-5 {
				fill: url("#linear-gradient-5");
			}
			.cls-6 {
				fill: url("#linear-gradient-6");
			}
			.cls-7 {
				fill: url("#linear-gradient-7");
			}
			.cls-8 {
				fill: url("#linear-gradient-8");
			}
			.cls-9 {
				fill: url("#linear-gradient-9");
			}
			.cls-10 {
				fill: url("#linear-gradient-10");
			}
			.cls-11 {
				fill: url("#linear-gradient-11");
			}
		</style>
		<linearGradient id="linear-gradient" x1="487.77" y1="141.66" x2="487.77" y2="3.66" gradientUnits="userSpaceOnUse"><stop offset="0" stop-color="#FAFFFD"/><stop offset="1" stop-color="#FAFFFD"/></linearGradient><linearGradient id="linear-gradient-2" x1="580.24" y1="141.66" x2="580.24" y2="3.66" xlink:href="#linear-gradient"/><linearGradient id="linear-gradient-3" x1="829.1" y1="141.66" x2="829.1" y2="3.66" xlink:href="#linear-gradient"/><linearGradient id="linear-gradient-4" x1="642.13" y1="141.66" x2="642.13" y2="3.66" xlink:href="#linear-gradient"/><linearGradient id="linear-gradient-5" x1="706.33" y1="141.66" x2="706.33" y2="3.66" xlink:href="#linear-gradient"/><linearGradient id="linear-gradient-6" x1="762.44" y1="141.66" x2="762.44" y2="3.66" xlink:href="#linear-gradient"/><linearGradient id="linear-gradient-7" x1="53.21" y1="141.66" x2="53.21" y2="3.66" xlink:href="#linear-gradient"/><linearGradient id="linear-gradient-8" x1="240.83" y1="141.66" x2="240.83" y2="3.66" xlink:href="#linear-gradient"/><linearGradient id="linear-gradient-9" x1="122.9" y1="141.66" x2="122.9" y2="3.66" xlink:href="#linear-gradient"/><linearGradient id="linear-gradient-10" x1="176.86" y1="141.66" x2="176.86" y2="3.66" xlink:href="#linear-gradient"/><linearGradient id="linear-gradient-11" x1="355.92" y1="141.66" x2="355.92" y2="3.66" xlink:href="#linear-gradient"/></defs>
	<title>Asset 1</title>
	<g id="Layer_2" data-name="Layer 2">
		<g id="Layer_1-2" data-name="Layer 1"><path
			class="cls-1"
			d="M539.94,41.94c-8.5-8.63-18.06-14-29.28-16.22a48.09,48.09,0,0,0-21.75.69c-3.81,1-6.64,3.74-8.73,7s-1,5.85,2,7.93c7.36,5,15.44,8.68,23.26,12.86a83.41,83.41,0,0,1,20.78,15c12.39,12.66,9.47,41.79-3.44,51.76-15.55,12-32.54,15.83-51.5,14.16C457,133.83,444.89,127.9,434,118.83c-2-1.64-2.66-3.24-2.15-5.78,1.31-6.59,2.36-13.23,3.62-20.49,3.24,2.45,6,4.65,8.92,6.75,10.13,7.39,20.81,13.42,33.72,14.37,7.49.55,14.45-.4,21-4.5,9.5-5.92,11.78-16.69,5-25.66-4.46-5.87-10.55-9.67-16.92-13.09-6.08-3.26-12.34-6.21-18.23-9.77-11.54-7-15.59-15.58-12.91-27.59,1.53-6.88,6.26-11.89,11.51-16.28C477.85,8.19,489.93,5.17,503.05,6a91.24,91.24,0,0,1,37.81,11c2.28,1.22,3.25,2.5,2.91,5.24A115.87,115.87,0,0,1,539.94,41.94Z"/><path
			class="cls-2"
			d="M569.83,97.72c-4.06,4.82-4.45,10.2-5.12,15.48-1.3,10.33-1.29,10.41-11.51,10.29-3.59,0-8.5,1.64-10.36-.82-1.48-2,.58-6.65,1.14-10.11,5.08-31.68,10-63.4,15.94-94.93.57-3,1.5-4.05,4.55-3.85a94.39,94.39,0,0,0,12.69,0c3.29-.23,3.59,1,3.2,3.85-2.29,16.59-4.42,33.21-6.75,50.93,4-3.65,7.75-6.33,10.61-9.73,6.66-7.94,14.5-12.94,25-10.52A27.35,27.35,0,0,0,615,49.37c.55,1.8-.72,2.35-1.37,3.13-7.9,9.56-15.79,19.14-23.82,28.59a6,6,0,0,0-1.27,6.69c5.53,15.59,15.19,28.17,27.7,38.7,2.19,1.84,2.51,3.13.87,5.48-2.36,3.38-5.38,6.16-7.81,9.44-1.61,2.17-2.9,1.86-4.82.48-9.29-6.67-16.73-15.05-23.08-24.49C577.26,111.21,573.67,104.68,569.83,97.72Z"/><path
			class="cls-3"
			d="M863.45,107.3c-.41,3.58-.75,6.78-1.16,10-1,7.72-2.76,10-9,11.61a14.23,14.23,0,0,1-15.68-5.5,22.58,22.58,0,0,1-3.94-16.87c1.19-8.5,2.8-16.94,4.21-25.41.42-2.55.94-5.57-2.15-6.52s-6.49-1.19-8.95,1.79A23,23,0,0,0,821.34,88c-1.67,11.42-3.91,22.75-5.73,34.15-.39,2.44-1.42,3.28-3.76,3.51-4.94.5-9.86.16-14.79.21-2.47,0-2.18-1.52-2.26-3.09-.39-7.85,1.76-15.37,3-23,4.34-26,9-51.88,13.31-77.85.67-4,2.14-5.6,6.17-5.15,4.47.51,9,.84,13.47,1a2.33,2.33,0,0,1,2.56,2.65c-.18,7.36-3,14.51-4,21.75A100.26,100.26,0,0,0,828.4,54c-.08,3.08,1,3,3.08,1.59a37.85,37.85,0,0,1,8.68-4.29c10.51-3.5,19.74,2.5,20.87,13.57.58,5.71-.7,11.2-2.08,16.67-1.59,6.28-3.41,12.52-3.8,19C854.72,107.67,856.1,108.78,863.45,107.3Z"/><path
			class="cls-4"
			d="M648.65,127c-35.42-.28-44.05-29.27-35.54-51.08,7.2-18.46,24.54-29.12,42.42-26.37,8.19,1.26,15.28,4.82,17.76,13,2.68,8.83-.83,16.82-7.47,22.89-8.47,7.73-18.11,12.35-30.06,8.48-2.53-.82-3.83,1.45-2.9,4.68,1.77,6.14,7.37,10.21,14.75,10.56,3.8.18,7.68.39,11.32-.89,2.63-.93,3.08.21,2.74,2.27-.72,4.44-1.6,8.84-2.42,13.26-.29,1.57-1.61,1.91-2.83,2.12C653.38,126.39,650.31,126.75,648.65,127Zm-6.09-47c3.74-.52,7.81-3,11-6.52,2.42-2.65,1-6.81-2-7.35-4.2-.75-12.57,3.38-14.37,7.1C635.11,77.6,636.5,79.89,642.57,80Z"/><path
			class="cls-5"
			d="M719.35,102.9a36.82,36.82,0,0,1-2.17,11.88c-2.75,7.53-9.82,11.29-18.8,10.25-7.86-.92-11.71-5.06-13.14-13.6-1.34-8,.62-15.67,2-23.41.8-4.44,1.7-8.85,2.42-13.3.66-4.1-.49-5.67-4.54-5.3-2.85.26-3-.71-2.63-2.94.65-3.89,1.31-7.8,1.66-11.72.22-2.45,1-3.31,3.6-3.22,5.79.21,6-.22,7-5.88,1.41-8.47,3-16.91,4.37-25.39.4-2.42,1.17-3.68,4-3.49a97.34,97.34,0,0,0,12.69,0c3-.19,3.71,1.11,3.33,3.68-.93,6.27-1.72,12.55-2.82,18.79-2,11.25-2,11.23,9.11,12.82,5.52.79,5.52.79,4.18,6.32a5.17,5.17,0,0,1-.18.83c-1.32,3.08-.15,7.62-2.78,9.32s-6.54,1.29-9.9,1.28c-3.65,0-5.37,1-5.79,5-.7,6.7-3.8,13-3.77,19.86a27.25,27.25,0,0,0,.46,5.87c1.45,6.35,4.41,7.38,9.9,3.59Z"/><path
			class="cls-6"
			d="M789.4,70.95c-1.58-.9-2.66-1.54-3.76-2.13-11.56-6.23-21.34-3.57-28.63,7.77-6.72,10.46-4.72,24.9,4.4,31.66,5.2,3.86,10.7,3.81,16.36,1.21,1.64-.75,3.2-1.68,5.25-2.77A41.41,41.41,0,0,1,781.28,121c-1.13,3.49-3.7,5.4-7.41,6.09-24.61,4.56-44-14-40.56-39.11,2.07-14.92,8.18-27.66,22-35.14,10.82-5.86,22.09-5.8,33.33-.7,2.61,1.18,4,2.58,3.11,5.8C790.68,62,790.22,66.21,789.4,70.95Z"/><path
			class="cls-7"
			d="M96.8,108.52c-.93,6.55-.3,12.94-1.85,19.12-1.37,5.46-3.93,7.24-9.48,7.83C74.16,136.69,63,136.7,52.05,133c-18.4-6.14-31.28-18-37.73-36.42-1.35-3.85-3-7.68-3.66-11.66-.75-4.71-3.32-6.39-7.58-6.31-2.71.05-3.54-1.1-2.86-3.6,1.08-4,.23-8.17,1.45-12.14.76-2.46,2.17-4.25,4.78-3.75,3,.56,3.35-.77,4-3.19C16,34.56,27,16.68,47.39,7.06A74.89,74.89,0,0,1,94.85,1.63a24.25,24.25,0,0,1,3.23,1c8.54,3,9.12,4,7.82,12.94-.5,3.48-1.29,6.93-1.59,10.42-.26,3-1.22,3-3.67,1.87-15.16-6.94-30.48-7.09-45.13.91a42.07,42.07,0,0,0-20.4,24.89c-1.53,4.88-1.08,5.22,4,5.4,12.12.44,24.23.82,36.35.29,6.64-.29,6.66-.14,6,6.62-.27,2.67-.91,5.34-.79,8,.15,3.59-1.72,4-4.6,4-12.4.12-24.81.56-37.21.5-3.84,0-4.55,1.68-4.43,4.77C34.59,88.11,37,92.12,39.6,96c6.62,9.64,16.58,13.31,27.49,15.61C77.21,113.71,86.57,110.16,96.8,108.52Z"/><path
			class="cls-8"
			d="M274.84,103.5c-.36,3.48-.6,6.56-1,9.62-1,7.26-2.8,9.48-9,11.08S252.69,124,249,119.15c-4.69-6.17-4.45-13.06-3-20.16,1.14-5.65,2.89-11.19,3.35-17a36.6,36.6,0,0,0,.15-5.06c-.18-3-.48-6-4.3-6.79-3.56-.72-5.86.8-7.67,3.8-5,8.22-6.25,17.39-7.21,26.66-.56,5.46-1.28,10.89-2.3,16.29-.51,2.72-1.73,3.68-4.42,3.69-4.79,0-9.58.26-14.36.56-2.27.14-2.6-.88-2.32-2.77,5-34.24,9.82-68.53,17.6-102.3.48-2.1,1.33-3.05,3.68-2.94a113.12,113.12,0,0,0,12.69,0c2.89-.18,3.25,1.1,3.06,3.46-.68,8.44-2.54,16.7-3.81,25-.38,2.5-.58,5-.83,7.55s.54,2.87,2.89,1.9c4.78-2,9.47-4.34,14.8-4.65,10.4-.61,16.41,5.83,15,16.05q-2.34,16.51-4.67,33C266.23,103,266.85,103.66,274.84,103.5Z"/><path
			class="cls-9"
			d="M137.86,101a30.43,30.43,0,0,1-2.07,9.44c-3.19,8.09-9.56,11.74-18.86,10.73-8.06-.87-12.25-5.23-13.65-14.12-1-6.45.68-12.58,2.18-18.72a98,98,0,0,0,2.87-15.77c.44-5.74-1.21-7.74-6.86-7-4,.57-4.42-.87-3.74-4.13.74-3.58,1.27-7.2,1.8-10.82.29-1.95,1-3,3.24-2.66a17.3,17.3,0,0,0,4.64.1c3.07-.31,5.15-1.63,5.68-5.1,1.32-8.61,3-17.17,4.32-25.79.41-2.71,1.3-4,4.18-3.93,4.36.13,8.74.11,13.1,0,2.86-.08,3.52,1,3.06,3.8-1.4,8.46-2.35,17-3.9,25.44-.64,3.49.9,4.38,3.65,5.12s5.61.41,8.41.3c2.06-.08,2.72.45,2.34,2.63-.75,4.3-1.28,8.63-1.77,13C146.22,65.81,145,66.2,143,66c-3.07-.34-6.19-.73-9.25.05-6,1.55-5.77,12.16-7,17.25-.58,2.46-1.46,4.88-1.36,7.45C125.89,102.48,128.67,103.5,137.86,101Z"/><path
			class="cls-10"
			d="M203.07,67.09,199.89,65c-9.52-6.23-17.74-5.26-25.06,3.45C168.46,76,165,84.63,168.58,94.64c4.27,12.07,14.54,15.91,25.72,9.77l2.94-1.61a36,36,0,0,1-1.15,13.89,8.25,8.25,0,0,1-7,6c-24.83,4.49-41.61-9.66-41.55-35,0-17.55,8.25-30.55,23.09-39.1,10.08-5.81,20.94-5.79,31.69-1,3,1.34,4.13,3.43,3.69,6.69A101.69,101.69,0,0,1,203.07,67.09Z"/><path
			class="cls-11"
			d="M350.28,102.37c-7.57,10.66-17,18.68-29.62,22.23-10.74,3-21.35,3.79-31.34-2.6-.93-.59-2.42-.82-2.48-2.06a38.87,38.87,0,0,1,1.66-14.18c.57-1.76,2-.15,2.8.13,16,5.25,32-.09,41.22-13.89,1.33-2,4-4.41-.69-5.89-1-.31-.71-1.38-.57-2.22.78-4.86,1.61-9.72,2.31-14.59.21-1.43.77-1.68,2.18-1.72,9.77-.26,12.45-2.2,14.93-11.89,4.45-17.44,15.39-29.81,30.27-39a48.92,48.92,0,0,1,34.92-6.62c2.85.49,5.23,2,7.73,3.25,1.95,1,1.54,2.57,1.21,4.36-2.78,14.95-5.31,29.95-8.25,44.86-.71,3.6.3,5,3.63,4.94s4.65,1,3.77,4.76a105.06,105.06,0,0,0-1.65,10.95c-.59,4.92-1.77,6.42-6.56,5-3-.9-3.61.45-4.13,2.79-1.92,8.65-4,17.27-5.85,25.93a9.71,9.71,0,0,1-3.85,6.18c-6,4.49-11.74,9.25-17.6,13.89-4.37,3.46-4.35,3.43-7.66-.85q-12.29-15.9-24.65-31.75C351.51,103.73,350.94,103.13,350.28,102.37Zm36.63-35.3c4.79.11,6.24-1,7.39-7.7,1.29-7.62,2.41-15.28,3.48-22.94.2-1.4,1.52-3.2-.14-4.23-1.39-.86-3.08.2-4.36,1-11.7,6.91-18.56,17.75-23.87,29.78-.75,1.7-.22,3,2,3.12C375.88,66.32,380.37,66.64,386.91,67.07ZM388.72,88h-18c3.88,5.91,7.52,11.38,11.05,16.91a3.23,3.23,0,0,0,3.15,1.67c2-.17,1.13-1.9,1.36-3C387.3,98.52,387.09,93.24,388.72,88Z"/></g>
	</g>
</svg>
